<svg height="30" viewBox="0 0 30 30" width="30" xmlns="http://www.w3.org/2000/svg">
    <!-- from http://jozef89.deviantart.com/art/Free-document-icons-445521778 -->
    <path d="M28.595 7.562l-5.438-6.309-1.078-1.25h-12.851c-1.727 0-3.124 1.397-3.124 3.124v3.971h1.936l-.001-3.21c.004-.971.784-1.756 1.752-1.756l10.994-.01v5.208c.001 1.939 1.567 3.51 3.507 3.51h3.807l-.189 15.02c-.004.967-.784 1.747-1.752 1.754l-16.506-.008c-.883 0-1.594-.866-1.6-1.935v-1.271h-1.938v1.896c0 1.907 1.277 3.455 2.845 3.455l17.763-.005c1.726 0 3.124-1.404 3.124-3.126v-17.604l-1.251-1.454" fill="#434440"/>
    <path d="M20.145 25.368h-20.145v-19.239h20.145v19.239m-18.211-1.936h16.274v-15.367h-16.274" fill="#EA4C3A"/>
    <path d="M10.314 9.069c.305.141.242.328.148 1.201-.097.905-.414 2.554-1.032 4.173-.616 1.622-1.529 3.21-2.325 4.39-.797 1.178-1.478 1.943-1.998 2.386-.519.441-.882.559-1.115.599-.233.04-.339 0-.405-.117-.063-.118-.084-.315-.031-.551.053-.234.181-.51.542-.863.36-.354.956-.785 1.785-1.188.829-.402 1.891-.775 2.762-1.031s1.551-.393 2.146-.5c.595-.108 1.104-.187 1.604-.226.5-.04.988-.04 1.467 0 .478.039.945.117 1.348.216.406.097.745.217 1.042.402.299.187.552.441.681.726.127.286.127.6.021.825-.105.227-.318.364-.563.441-.246.08-.522.099-.851 0-.33-.098-.712-.314-1.115-.599-.404-.284-.829-.638-1.381-1.187-.553-.551-1.232-1.298-1.807-2.023-.573-.727-1.041-1.434-1.358-2.033-.319-.599-.489-1.09-.627-1.582-.138-.491-.244-.98-.287-1.422-.043-.443-.021-.837.021-1.149.042-.315.106-.55.213-.708.106-.157.256-.235.362-.275l.234-.049c.063-.009.126-.029.222 0 .094.03.216.104.34.18" stroke="#EA4C3A" stroke-linejoin="round" stroke-miterlimit="10" stroke-width=".75" fill="none"/>
</svg>
